<svg width="148" height="228" viewBox="0 0 148 228" fill="none" xmlns="http://www.w3.org/2000/svg">
<path d="M33.3949 152.706L30.4984 149.784L27.1255 153.114L30.0855 155.981L33.3949 152.706Z" fill="white"/>
<path d="M102.613 152.299C103.015 152.299 103.41 152.199 103.763 152.01C104.177 151.782 104.531 151.462 104.798 151.076C105.031 151.351 105.327 151.566 105.662 151.703C105.95 151.832 106.261 151.902 106.577 151.91C106.99 151.95 107.405 151.858 107.762 151.648C108.119 151.438 108.398 151.121 108.559 150.743C108.896 149.949 109.067 149.096 109.06 148.234C109.062 147.845 109.043 147.455 109.003 147.068C108.965 146.716 108.921 146.384 108.883 146.077C108.489 146.152 108.114 146.221 107.758 146.277C107.403 146.334 107.028 146.403 106.634 146.484C106.898 147.011 107.039 147.59 107.047 148.178C107.074 148.502 107.003 148.827 106.844 149.112C106.792 149.199 106.718 149.271 106.631 149.321C106.543 149.372 106.443 149.399 106.342 149.401C106.143 149.401 105.965 149.257 105.808 148.968C105.618 148.494 105.538 147.984 105.573 147.475V147.036C105.577 146.87 105.596 146.704 105.63 146.541C105.313 146.616 104.957 146.685 104.563 146.748C104.169 146.804 103.814 146.873 103.502 146.949C103.579 147.3 103.629 147.576 103.649 147.739C103.66 147.948 103.66 148.157 103.649 148.366C103.671 148.826 103.589 149.285 103.407 149.708C103.25 150.022 103.073 150.179 102.874 150.179C102.677 150.179 102.512 150.028 102.372 149.74C102.219 149.339 102.15 148.913 102.169 148.485C102.169 148.448 102.169 148.31 102.169 148.078C102.2 147.763 102.251 147.451 102.321 147.143C101.939 147.222 101.553 147.28 101.165 147.319C100.79 147.356 100.403 147.419 100.009 147.494C99.8612 148.028 99.7823 148.578 99.7738 149.131C99.7478 149.562 99.8104 149.994 99.9577 150.4C100.105 150.807 100.334 151.179 100.631 151.496C100.875 151.757 101.169 151.966 101.496 152.112C101.824 152.257 102.178 152.336 102.537 152.343" fill="#FDFEFF"/>
<path d="M101.667 185.247L104.62 188.108L107.936 184.84L105.039 181.917L101.667 185.247Z" fill="#FDFEFF"/>
<path d="M137.93 143.361L127.633 144.998V147.099L137.93 145.581V143.361Z" fill="#FDFEFF"/>
<path d="M146.448 164.944C146.081 163.901 145.49 162.948 144.714 162.152C143.939 161.356 142.998 160.736 141.957 160.334C140.731 159.86 139.423 159.63 138.107 159.656C136.405 159.696 134.723 160.033 133.14 160.654C131.04 161.476 129.083 162.619 127.341 164.041L122.196 168.011V160.829H117.464V174.265H107.402V160.246H102.67V174.265H80.7871V168.419C80.7952 167.235 80.5932 166.059 80.1901 164.944C79.8234 163.901 79.2321 162.948 78.4568 162.152C77.6815 161.356 76.7407 160.736 75.6992 160.334C74.4737 159.86 73.1656 159.63 71.8499 159.656C70.1474 159.696 68.4655 160.033 66.8826 160.654C64.782 161.476 62.825 162.619 61.0833 164.041L55.9382 168.011V147.394H51.2059V174.265H41.5827L38.5655 161.413H28.1355C26.5777 161.399 25.0328 161.692 23.591 162.275C22.1491 162.857 20.8392 163.717 19.7376 164.805C18.636 165.893 17.7649 167.187 17.175 168.61C16.5851 170.034 16.2882 171.56 16.3018 173.098V174.265C16.2868 174.729 16.3684 175.192 16.5415 175.624C16.7146 176.056 16.9756 176.448 17.3084 176.777C17.6412 177.105 18.0386 177.363 18.4762 177.534C18.9138 177.705 19.3822 177.786 19.8525 177.771H26.3379C26.346 178.632 26.1752 179.486 25.8361 180.28C25.1799 181.823 23.937 183.05 22.3743 183.698C21.5703 184.032 20.7057 184.201 19.8335 184.194H12.1603C11.288 184.201 10.4235 184.032 9.61949 183.698C8.43818 183.209 7.43065 182.385 6.7249 181.33C6.01915 180.274 5.64705 179.035 5.65585 177.771V170.758H0.929977V177.771C0.91898 179.267 1.22176 180.749 1.81925 182.124C2.96032 184.765 5.09042 186.868 7.76472 187.995C9.1571 188.584 10.6583 188.881 12.173 188.867H19.8652C21.3779 188.88 22.8769 188.583 24.2672 187.995C25.5938 187.437 26.7994 186.632 27.8179 185.624C28.8352 184.618 29.65 183.43 30.219 182.124C30.8143 180.748 31.1149 179.266 31.1019 177.771V176.598C31.117 176.134 31.0354 175.671 30.8622 175.24C30.689 174.808 30.4278 174.416 30.095 174.088C29.7621 173.76 29.3646 173.502 28.9271 173.332C28.4895 173.162 28.0212 173.082 27.5511 173.098H21.034C21.0239 172.164 21.2144 171.238 21.593 170.382C22.3458 168.704 23.7045 167.362 25.4042 166.619C26.2736 166.245 27.2129 166.057 28.1609 166.067H34.7225L37.6254 178.919H141.715C142.425 178.938 143.131 178.81 143.787 178.543C144.444 178.276 145.036 177.876 145.527 177.369C146.025 176.887 146.418 176.31 146.684 175.672C146.949 175.035 147.08 174.351 147.07 173.662V168.4C147.081 167.216 146.879 166.039 146.473 164.925M76.0486 174.265H55.9382V173.913L63.9798 167.723C65.2997 166.651 66.7641 165.767 68.3309 165.094C69.4256 164.627 70.6005 164.369 71.7927 164.335C72.3757 164.295 72.9607 164.379 73.5084 164.58C74.0561 164.781 74.554 165.095 74.9687 165.502C75.7047 166.296 76.0968 167.343 76.0613 168.419L76.0486 174.265ZM142.306 173.681C142.318 173.761 142.311 173.841 142.285 173.917C142.26 173.994 142.216 174.063 142.159 174.119C142.102 174.176 142.032 174.219 141.955 174.244C141.878 174.269 141.796 174.276 141.715 174.265H122.196V173.913L130.237 167.723C131.557 166.651 133.022 165.767 134.588 165.094C135.683 164.627 136.858 164.369 138.05 164.335C138.633 164.295 139.218 164.379 139.766 164.58C140.314 164.781 140.812 165.095 141.226 165.502C141.962 166.296 142.354 167.343 142.319 168.419L142.306 173.681Z" fill="#FDFEFF"/>
<path d="M134.201 155.981L137.517 152.706L134.614 149.784L131.248 153.114L134.201 155.981Z" fill="#FDFEFF"/>
<mask id="mask0_1_803" style="mask-type:luminance" maskUnits="userSpaceOnUse" x="59" y="67" width="30" height="61">
<path d="M86.9804 68.8325C85.3087 70.0092 83.5336 71.0357 81.6765 71.8997C79.701 72.8217 78.0431 73.5054 76.4424 74.1013C73.9588 75.0296 71.6086 75.7635 68.4326 76.9051L59.9209 107.401C58.7441 111.62 59.3122 116.127 61.5004 119.933C63.6886 123.738 67.3176 126.529 71.5895 127.692L81.4986 92.2033L87.9522 69.027L88.2825 67.8478C87.857 68.1865 87.4187 68.5189 86.9677 68.8325" fill="white"/>
</mask>
<g mask="url(#mask0_1_803)">
<path d="M88.2954 67.8478H57.4692V127.692H88.2954V67.8478Z" fill="url(#paint0_linear_1_803)"/>
</g>
<mask id="mask1_1_803" style="mask-type:luminance" maskUnits="userSpaceOnUse" x="76" y="65" width="28" height="63">
<path d="M88.2952 67.8228C87.8696 68.1615 87.4313 68.4939 86.9803 68.8075C85.3086 69.9842 83.5336 71.0107 81.6764 71.8747C79.7009 72.7968 78.0431 73.4804 76.4424 74.0763L81.524 92.1783L91.4331 127.667C95.6943 126.498 99.3123 123.709 101.494 119.91C103.675 116.111 104.242 111.612 103.07 107.401L92.7098 70.2878L91.2743 65.1508C90.3474 66.1185 89.3518 67.0198 88.2952 67.8479" fill="white"/>
</mask>
<g mask="url(#mask1_1_803)">
<path d="M80.9735 54.7325L53.4697 117.947L100.993 138.108L128.497 74.8944L80.9735 54.7325Z" fill="url(#paint1_linear_1_803)"/>
</g>
<mask id="mask2_1_803" style="mask-type:luminance" maskUnits="userSpaceOnUse" x="86" y="3" width="42" height="75">
<path d="M91.4777 4.27122C92.5636 5.34788 93.5382 6.52873 94.3869 7.79627C96.7322 11.39 98.376 15.3852 99.2335 19.5757C101.192 28.1811 101.525 37.0693 100.218 45.7942C99.0429 53.6722 96.0892 60.1829 91.2744 65.1506C90.3475 66.1184 89.352 67.0197 88.2953 67.8478C87.8698 68.1865 87.4315 68.5189 86.9805 68.8325C87.3044 68.889 87.6157 68.958 87.9651 69.027C89.571 69.3497 91.1556 69.7686 92.71 70.2814C93.6374 70.5825 94.588 70.9317 95.562 71.3289C98.8164 72.6557 101.891 74.3771 104.715 76.4534C105.155 76.7735 105.678 76.9649 106.223 77.006C106.768 77.047 107.313 76.9359 107.797 76.6855C108.281 76.435 108.685 76.0552 108.961 75.5894C109.237 75.1236 109.375 74.5906 109.359 74.0511V73.9507C109.332 71.8045 109.59 69.6641 110.127 67.5843L111.69 67.7599C113.404 68.0365 115.136 68.1958 116.873 68.2366C117.579 68.2328 118.275 68.0753 118.912 67.7754C119.55 67.4755 120.112 67.0406 120.56 66.5016C121.007 65.9625 121.329 65.3327 121.502 64.6568C121.675 63.981 121.695 63.2758 121.561 62.5915C121.218 60.4401 120.71 58.4079 122.577 56.5826C122.863 56.3066 122.329 55.209 122.113 54.2117C123.866 53.6597 123.866 52.4429 123.041 50.9689C122.456 49.9214 122.641 49.1499 123.911 48.8049C124.081 48.7394 124.244 48.6597 124.4 48.5665C127.875 46.873 128.021 46.3901 126.16 42.9779C124.889 40.6571 123.53 38.374 122.456 35.9717C122.043 35.0559 122.266 33.8391 122.285 32.7602C122.285 31.5434 122.755 30.2513 122.418 29.1348C121.269 25.4216 119.877 21.7962 118.493 17.9951C121.116 15.7183 121.91 12.6448 121.313 8.9504C119.77 9.60698 118.108 9.94632 116.428 9.9477C110.775 9.91634 108.571 6.66099 101.939 4.8671C99.7969 4.2201 97.5734 3.87176 95.3333 3.83216C94.0363 3.83077 92.7432 3.97171 91.4777 4.2524" fill="white"/>
</mask>
<g mask="url(#mask2_1_803)">
<path d="M88.2942 -3.22028L73.8799 75.5709L126.737 84.9998L141.151 6.20856L88.2942 -3.22028Z" fill="url(#paint2_linear_1_803)"/>
</g>
<mask id="mask3_1_803" style="mask-type:luminance" maskUnits="userSpaceOnUse" x="39" y="0" width="56" height="80">
<path d="M72.193 0.645874C71.2974 0.645874 70.4081 0.721142 69.5188 0.802683C64.0811 1.28273 58.7808 2.75445 53.8866 5.14316C52.8177 5.68619 51.8213 6.3583 50.9202 7.14404C49.2687 8.55532 48.5065 10.2802 49.1925 12.5006C49.229 12.7428 49.2157 12.9899 49.1535 13.2269C49.0913 13.464 48.9814 13.6863 48.8304 13.8805C46.3767 16.9667 45.0936 20.8033 45.2034 24.7254C45.3589 27.1704 44.5458 29.5793 42.9358 31.4431C41.9639 32.6098 41.0302 33.8015 40.1473 35.0434C39.2643 36.2854 39.5946 37.2764 40.8841 38.0228C41.3986 38.3176 42.091 38.4995 42.3959 38.9386C42.8087 39.5345 43.355 40.6007 43.1009 40.9834C42.0973 42.4824 42.8342 43.3355 43.9331 44.0882C43.5329 45.0228 42.1926 45.8068 43.7044 46.7288C44.9748 47.5191 45.159 48.5353 44.8795 49.9214C44.3205 52.744 45.5782 54.2494 48.5128 54.3811C49.4945 54.4049 50.4765 54.3441 51.4474 54.1992C52.8385 54.0173 54.2233 53.7539 55.8938 53.4842C56.0463 55.2843 56.1543 56.9339 56.3321 58.5773C56.4401 59.5872 56.0844 60.0889 55.0617 60.4904C53.0914 61.2588 51.1807 62.1687 49.3449 63.2126C45.4766 65.4581 42.434 68.4813 40.8904 72.7591C40.3645 74.1978 40.0521 75.7042 39.9631 77.2313C39.9472 77.6304 40.0435 78.0261 40.2413 78.3745C40.4392 78.723 40.7308 79.0105 41.084 79.2053C41.4372 79.4002 41.838 79.4947 42.2422 79.4783C42.6464 79.462 43.0382 79.3356 43.3741 79.113C43.6917 78.9039 44.0093 78.7094 44.3269 78.5296L43.1644 75.4813C43.0606 75.2108 43.0119 74.9227 43.0212 74.6335C43.0305 74.3444 43.0976 74.0599 43.2186 73.7964C43.3396 73.5329 43.5122 73.2957 43.7264 73.0983C43.9405 72.9009 44.1921 72.7472 44.4666 72.6462L44.8604 72.5019L46.6898 77.3002C47.5664 76.8925 48.462 76.5225 49.3703 76.1963L46.9947 69.9679C46.9233 69.7805 46.8901 69.5811 46.8968 69.381C46.9035 69.1809 46.9501 68.9841 47.0338 68.8018C47.1176 68.6194 47.2369 68.4552 47.385 68.3184C47.533 68.1817 47.7069 68.075 47.8967 68.0046L48.9321 67.6158L51.8413 75.3496H51.8857C52.7538 75.0778 53.6304 74.8206 54.5154 74.5781L51.403 66.424L53.8866 65.4957L57.0626 73.8693C57.7994 73.656 58.5299 73.4302 59.254 73.1919L59.4573 73.1291L56.1924 64.398L58.676 63.476L62.0171 72.2573L64.3356 71.5172L60.9373 62.5853L61.7567 62.2843C61.9747 62.2019 62.2071 62.163 62.4405 62.1699C62.6738 62.1768 62.9034 62.2293 63.1161 62.3244C63.3287 62.4194 63.5202 62.5552 63.6794 62.7238C63.8386 62.8924 63.9623 63.0905 64.0434 63.3066L66.8637 70.708C67.88 70.3693 68.8964 70.0306 69.9 69.6731L67.1749 62.5853L67.3528 62.5163C67.9653 62.2905 68.6434 62.3135 69.2387 62.5804C69.834 62.8473 70.2979 63.3362 70.5288 63.9402L71.4244 66.2735V66.3174L72.3645 68.7636C73.1458 68.4625 73.9208 68.1364 74.6894 67.8102L74.8735 67.7349C76.8455 66.8931 78.7321 65.8682 80.5078 64.674C80.6984 64.5549 80.8889 64.4231 81.0731 64.2851C81.7083 63.8649 82.2546 63.4258 82.8135 62.9679C88.6129 58.2198 92.1128 51.6777 93.415 43.5738C94.7087 35.4981 94.3633 27.2488 92.3987 19.3061C91.5243 15.3951 89.8774 11.6928 87.5521 8.41105C87.0567 7.7399 86.5422 7.1064 86.0086 6.52934C84.3717 4.64999 82.3362 3.14925 80.0463 2.13357C77.7564 1.11788 75.2683 0.61213 72.7584 0.652152H72.1676" fill="white"/>
</mask>
<g mask="url(#mask3_1_803)">
<path d="M78.4702 -24.2465L2.68359 23.9453L55.5385 104.994L131.325 56.8021L78.4702 -24.2465Z" fill="url(#paint3_linear_1_803)"/>
</g>
<path d="M87.2725 68.2054C87.2738 69.3348 86.9357 70.4392 86.301 71.3788C85.6663 72.3184 84.7636 73.051 83.7072 73.4838C82.6507 73.9166 81.488 74.0301 80.3661 73.8101C79.2442 73.5901 78.2137 73.0463 77.4049 72.2477C76.5962 71.449 76.0455 70.4314 75.8227 69.3236C75.5998 68.2158 75.7149 67.0677 76.1531 66.0244C76.5914 64.9812 77.3333 64.0898 78.2848 63.4631C79.2364 62.8364 80.3548 62.5025 81.4986 62.5038C83.0294 62.5054 84.497 63.1067 85.5795 64.1756C86.662 65.2445 87.2708 66.6937 87.2725 68.2054Z" fill="white"/>
<path d="M14.1803 199.542C15.2971 199.88 16.3384 200.425 17.2483 201.148C18.1518 201.869 18.89 202.771 19.4144 203.795C19.9822 204.917 20.2655 206.159 20.2401 207.414V210.857C20.2707 212.121 19.9872 213.372 19.4144 214.502C18.889 215.51 18.1503 216.396 17.2483 217.098C16.3337 217.807 15.2933 218.341 14.1803 218.673C13.0548 219.028 11.8809 219.209 10.6994 219.212H3.2168V199.028H10.6994C11.8805 199.029 13.0545 199.208 14.1803 199.561M4.74127 217.732H10.674C11.6706 217.732 12.6617 217.586 13.615 217.299C14.5305 217.033 15.3908 216.608 16.1558 216.045C16.9022 215.474 17.5171 214.754 17.9597 213.931C18.4437 213.003 18.6839 211.97 18.6585 210.926V207.483C18.6781 206.448 18.438 205.425 17.9597 204.504C17.5166 203.665 16.9024 202.926 16.1558 202.333C15.398 201.748 14.5364 201.308 13.615 201.035C12.6617 200.748 11.6706 200.602 10.674 200.602H4.74127V217.732Z" fill="white"/>
<path d="M29.2473 218.29C28.933 217.98 28.6859 217.61 28.521 217.202C28.3561 216.794 28.2769 216.358 28.2882 215.919V211.692C28.2811 211.076 28.4627 210.472 28.809 209.96C29.1751 209.427 29.6596 208.983 30.2255 208.662C30.8745 208.284 31.5797 208.009 32.3153 207.847C33.1606 207.652 34.0263 207.558 34.8942 207.564C35.8264 207.59 36.752 207.727 37.651 207.972C38.851 208.28 40.0323 208.654 41.189 209.095V207.615C41.2178 206.729 41.0396 205.849 40.6682 205.043C40.3557 204.383 39.8874 203.806 39.3025 203.362C38.7123 202.926 38.0378 202.614 37.3207 202.446C36.5437 202.256 35.7457 202.161 34.945 202.164C33.9408 202.162 32.9388 202.256 31.9533 202.446C31.025 202.623 30.1118 202.871 29.2219 203.186L28.5867 201.863C29.6029 201.483 30.6479 201.183 31.7119 200.966C32.7883 200.748 33.8843 200.639 34.9831 200.64C35.9744 200.636 36.9624 200.754 37.9241 200.991C38.8203 201.216 39.6624 201.615 40.4014 202.164C41.1433 202.733 41.7286 203.477 42.1037 204.328C42.5493 205.367 42.7658 206.487 42.7389 207.615V219.231H31.642C31.199 219.244 30.758 219.167 30.3462 219.005C29.9344 218.843 29.5605 218.6 29.2473 218.29ZM41.189 210.619C40.1731 210.138 39.1085 209.763 38.0131 209.503C36.9863 209.238 35.93 209.101 34.8688 209.095C33.6275 209.054 32.3926 209.288 31.2545 209.779C30.8524 209.916 30.5007 210.168 30.244 210.503C29.9872 210.838 29.8371 211.241 29.8126 211.66V215.888C29.8065 216.123 29.849 216.358 29.9375 216.577C30.026 216.795 30.1587 216.994 30.3274 217.161C30.4961 217.328 30.6975 217.459 30.9191 217.546C31.1407 217.633 31.378 217.675 31.6166 217.669H41.1446L41.189 210.619Z" fill="white"/>
<path d="M51.041 194.763H52.5845V203.368C53.499 202.862 54.4685 202.46 55.4747 202.17C56.3133 201.93 57.1805 201.801 58.0536 201.788C59.0023 201.787 59.9446 201.942 60.8421 202.245C61.7267 202.549 62.5347 203.037 63.2114 203.676C63.9297 204.367 64.4925 205.201 64.8629 206.122C65.303 207.223 65.5188 208.4 65.4981 209.584V214.897C65.5144 215.47 65.4099 216.04 65.1912 216.572C64.9725 217.103 64.6444 217.583 64.2277 217.983C63.8242 218.387 63.3422 218.706 62.8106 218.922C62.2791 219.137 61.7089 219.245 61.1343 219.237H51.041V194.763ZM63.1098 216.885C63.3775 216.627 63.5888 216.317 63.7308 215.975C63.8728 215.633 63.9425 215.266 63.9355 214.897V209.578C63.957 208.607 63.7708 207.644 63.3893 206.749C63.0631 205.996 62.5805 205.318 61.9728 204.761C61.4053 204.248 60.7404 203.851 60.0164 203.594C59.3035 203.34 58.5511 203.21 57.7932 203.211C55.9575 203.253 54.1636 203.76 52.5845 204.685V217.732H61.0962C61.4705 217.74 61.8424 217.671 62.1888 217.531C62.5352 217.391 62.8487 217.181 63.1098 216.917" fill="white"/>
<path d="M74.226 218.29C73.9128 217.979 73.6668 217.609 73.5031 217.201C73.3393 216.794 73.2611 216.358 73.2732 215.919V211.692C73.2639 211.077 73.4432 210.473 73.7877 209.96C74.1538 209.427 74.6382 208.983 75.2042 208.662C75.8532 208.284 76.5584 208.009 77.294 207.847C78.1393 207.652 79.005 207.558 79.8729 207.564C80.8051 207.59 81.7307 207.727 82.6297 207.972C83.8297 208.28 85.011 208.654 86.1677 209.095V207.615C86.1965 206.729 86.0183 205.849 85.6468 205.043C85.3344 204.383 84.866 203.806 84.2812 203.362C83.691 202.926 83.0164 202.614 82.2993 202.446C81.5223 202.256 80.7243 202.161 79.9237 202.164C78.9195 202.162 77.9175 202.256 76.9319 202.446C76.0038 202.624 75.0907 202.872 74.2006 203.186L73.5654 201.863C74.5816 201.483 75.6266 201.183 76.6906 200.966C77.767 200.748 78.863 200.639 79.9618 200.64C80.9531 200.636 81.9411 200.754 82.9028 200.991C83.799 201.216 84.6411 201.615 85.3801 202.164C86.1219 202.733 86.7072 203.477 87.0824 204.328C87.5279 205.367 87.7445 206.487 87.7176 207.615V219.231H76.6207C76.1776 219.244 75.7367 219.167 75.3249 219.005C74.9131 218.843 74.5392 218.6 74.226 218.29ZM86.1677 210.619C85.1518 210.138 84.0872 209.763 82.9917 209.503C81.9546 209.235 80.8875 209.098 79.8157 209.095C78.5764 209.052 77.3432 209.286 76.2078 209.779C75.8041 209.914 75.4505 210.166 75.1925 210.501C74.9344 210.836 74.7837 211.24 74.7595 211.66V215.888C74.7534 216.123 74.7959 216.358 74.8844 216.577C74.9729 216.795 75.1056 216.994 75.2743 217.161C75.4431 217.328 75.6444 217.459 75.866 217.546C76.0876 217.633 76.325 217.675 76.5635 217.669H86.0915L86.1677 210.619Z" fill="white"/>
<path d="M98.7509 216.578C99.6368 217.354 100.795 217.757 101.978 217.701H102.696C102.974 217.702 103.251 217.668 103.521 217.6L103.833 219.074C103.519 219.143 103.2 219.188 102.88 219.206C102.549 219.206 102.245 219.206 101.978 219.206C100.38 219.286 98.8138 218.745 97.6139 217.701C96.5341 216.697 95.9941 215.077 95.9941 212.839V197.271H97.5377V202.365H104.245V203.889H97.5631V212.865C97.5631 214.596 97.9675 215.833 98.7763 216.578" fill="white"/>
<path d="M115.958 201.681C117.103 201.021 118.4 200.663 119.725 200.64C121.156 200.622 122.536 201.161 123.568 202.139C124.654 203.143 125.194 204.761 125.194 207.006V219.231H123.644V207.006C123.644 205.237 123.257 203.983 122.482 203.243C122.126 202.893 121.704 202.616 121.24 202.427C120.775 202.239 120.278 202.143 119.776 202.145C118.951 202.153 118.136 202.326 117.381 202.653C116.579 202.993 115.823 203.431 115.132 203.958C114.469 204.457 113.901 205.069 113.456 205.764C113.058 206.355 112.838 207.044 112.82 207.753V219.212H111.264V200.64H112.814V204.403C113.654 203.272 114.739 202.34 115.99 201.675" fill="white"/>
<path d="M140.56 225.497C141.337 225.274 142.057 224.891 142.675 224.374C143.294 223.837 143.779 223.165 144.091 222.411C144.458 221.478 144.633 220.482 144.606 219.482V216.684C143.782 217.487 142.797 218.111 141.716 218.516C140.652 218.944 139.516 219.169 138.368 219.181C137.572 219.184 136.781 219.072 136.018 218.848C135.29 218.633 134.622 218.257 134.061 217.751C133.468 217.208 133.007 216.539 132.715 215.794C132.366 214.857 132.2 213.863 132.226 212.865V200.64H133.776V212.865C133.776 214.596 134.231 215.825 135.141 216.553C136.034 217.28 137.16 217.67 138.317 217.65C139.626 217.64 140.912 217.308 142.059 216.684C143.169 216.139 144.064 215.243 144.599 214.138V200.64H146.149V219.457C146.187 220.701 145.971 221.941 145.514 223.101C145.129 224.046 144.519 224.885 143.736 225.547C142.973 226.178 142.086 226.645 141.131 226.921C140.099 227.217 139.03 227.363 137.955 227.354C137.125 227.35 136.297 227.283 135.478 227.153C134.62 227.017 133.771 226.829 132.937 226.588L133.35 225.114C134.138 225.315 134.932 225.485 135.719 225.623C136.453 225.753 137.197 225.82 137.943 225.823C138.823 225.829 139.7 225.711 140.547 225.472" fill="white"/>
<defs>
<linearGradient id="paint0_linear_1_803" x1="58.8025" y1="99.4817" x2="87.7803" y2="99.4817" gradientUnits="userSpaceOnUse">
<stop stop-color="#E24393"/>
<stop offset="0.36" stop-color="#E25793"/>
<stop offset="1" stop-color="#E28393"/>
</linearGradient>
<linearGradient id="paint1_linear_1_803" x1="78.7416" y1="117.638" x2="116.064" y2="29.6645" gradientUnits="userSpaceOnUse">
<stop stop-color="#5CC6E6"/>
<stop offset="1" stop-color="#5CB3E6"/>
</linearGradient>
<linearGradient id="paint2_linear_1_803" x1="116.249" y1="11.3579" x2="97.3499" y2="117.305" gradientUnits="userSpaceOnUse">
<stop stop-color="#5CC6E6"/>
<stop offset="1" stop-color="#5CB3E6"/>
</linearGradient>
<linearGradient id="paint3_linear_1_803" x1="70.1678" y1="41.9755" x2="41.7787" y2="-2.66922" gradientUnits="userSpaceOnUse">
<stop stop-color="#E24393"/>
<stop offset="0.36" stop-color="#E25793"/>
<stop offset="1" stop-color="#E28393"/>
</linearGradient>
</defs>
</svg>
